<svg xmlns="http://www.w3.org/2000/svg" width="211.756" height="63.626" viewBox="0 0 211.756 63.626">
  <path id="Icon_payment-amazon" data-name="Icon payment-amazon" d="M33.39,52.234a32.167,32.167,0,0,1-4.97,3.977,2.025,2.025,0,0,1-1.491.5,30.018,30.018,0,0,1-3.479-4.474,16.009,16.009,0,0,1-10.935,4.474q-9.951,0-9.944-9.942,0-7.455,6.958-10.935,1.49-.489,12.428-1.988V32.85q0-3.472-.993-4.474c-.333-1.319-1.491-1.988-3.479-1.988q-4.472,0-5.467,3.977a.876.876,0,0,1-.993.993l-6.463-.5c-.667,0-.993-.5-.993-1.491Q5.55,19.43,18.479,19.427q6.457,0,9.942,3.479Q30.9,25.4,30.907,33.841V44.281q0,2.493,2.486,5.965a1.248,1.248,0,0,1,0,1.988ZM21.957,38.813q-9.945,0-9.942,6.958,0,4.472,3.977,4.474a5.84,5.84,0,0,0,4.97-2.982c.661-1.319.993-3.644.993-6.958V38.813Zm112.836,28.83c0-1.319-.83-1.656-2.486-.993A115.434,115.434,0,0,1,89.558,75.1q-30.324,0-55.175-14.416l-1.491-.5q-1.49.5,0,1.988A81.911,81.911,0,0,0,88.565,83.053q27.335,0,45.235-13.421a2.856,2.856,0,0,0,.993-1.988ZM39.853,56.709h6.462a1.318,1.318,0,0,0,1.491-1.491v-17.9q0-8.948,4.474-8.947,3.974,0,3.977,8.947v17.9c0,.332.328.83.993,1.491h6.959c.66,0,.993-.5.993-1.491v-17.9a29.431,29.431,0,0,1,.5-6.463,4.492,4.492,0,0,1,3.977-2.486q3.475,0,3.977,2.982V55.216q0,.5,1.491,1.491h6.462c.661,0,.993-.5.993-1.491V33.843q0-7.944-1.491-10.439a9.436,9.436,0,0,0-7.456-3.479q-6.962,0-8.947,5.965-2.982-5.965-8.451-5.965a8.956,8.956,0,0,0-8.947,5.965V21.913q0-1.49-.993-1.491H39.853c-.667,0-.993.5-.993,1.491v33.3c0,.332.326.83.993,1.491Zm68.1-23.858q0-3.472-.993-4.474c-.333-1.319-1.491-1.988-3.479-1.988q-4.472,0-5.468,3.977c0,.332-.333.83-.993,1.491l-6.463-.993c-.667,0-.993-.5-.993-1.491q1.982-9.939,14.912-9.942,5.965,0,9.444,3.479Q116.9,25.4,116.9,33.843V44.283q0,2.493,2.486,5.965a1.245,1.245,0,0,1,0,1.988q-.5.5-2.236,1.988a15.15,15.15,0,0,1-2.734,1.988,2.025,2.025,0,0,1-1.491.5,8.85,8.85,0,0,1-2.486-2.486,15.656,15.656,0,0,0-1.491-1.988,14.311,14.311,0,0,1-10.439,4.474q-9.945,0-9.942-9.942,0-7.455,6.959-10.935,1.49-.489,12.428-1.988v-1Zm0,5.963q-9.945,0-9.942,6.958,0,4.472,3.977,4.474a4.778,4.778,0,0,0,4.474-2.982c.993-1.319,1.491-3.644,1.491-6.958V38.813Zm28.583,19.138a25.046,25.046,0,0,0-12.178,3.231q-1.991,1.992.5,1.988,12.422-1.49,14.416.5.991,1.49-3.479,13.919a.977.977,0,0,0,1.491.5,19.434,19.434,0,0,0,6.463-10.19q1.982-6.712.5-8.2-.5-1.985-7.708-1.743Zm11.68-10.687q-4.472-2.484-11.93-2.486l10.935-15.907a6,6,0,0,0,1.491-2.982V21.913q0-1.49-.993-1.491H126.344a1.318,1.318,0,0,0-1.491,1.491v4.474a1.318,1.318,0,0,0,1.491,1.491h10.935L124.355,46.269a8.541,8.541,0,0,0-.5,3.479v4.474a1.318,1.318,0,0,0,1.491,1.491q10.929-5.965,22.865,0a1.318,1.318,0,0,0,1.491-1.491v-4.97a1.947,1.947,0,0,0-1.491-1.988Zm34.3-8.451q0,7.957-4.225,13.173a13.187,13.187,0,0,1-10.687,5.22,12.766,12.766,0,0,1-10.935-5.468,22.169,22.169,0,0,1-3.977-13.421q0-7.944,3.977-13.173a12.986,12.986,0,0,1,10.935-5.22,12.8,12.8,0,0,1,10.935,5.468,22.246,22.246,0,0,1,3.977,13.421Zm-9.942,0a30.221,30.221,0,0,0-.993-8.947q-.5-2.982-3.977-2.982-4.974,0-4.97,10.439,0,12.934,4.97,12.923t4.97-11.435Zm32.31-18.888q-5.965,0-8.947,6.463v-4.97c0-.661-.5-.993-1.491-.993h-5.965a.876.876,0,0,0-.993.993v33.8c0,.332.328.83.993,1.491h6.463a1.318,1.318,0,0,0,1.491-1.491v-17.9q0-4.472.993-6.463a3.9,3.9,0,0,1,3.977-2.982q3.973,0,3.977,9.444v17.9c0,.332.328.83.993,1.491h6.463a1.318,1.318,0,0,0,1.491-1.491V34.341q0-7.944-1.989-10.439-1.991-3.974-7.456-3.977Z" transform="translate(-2.571 -19.427)" fill="#ff9419"/>
</svg>
